<svg xmlns="http://www.w3.org/2000/svg" version="1.1" xmlns:xlink="http://www.w3.org/1999/xlink" xmlns:svgjs="http://svgjs.com/svgjs" width="1606" height="2000" preserveAspectRatio="none" viewBox="0 0 1606 2000"><g mask="url(&quot;#SvgjsMask2906&quot;)" fill="none"><rect width="1606" height="2000" x="0" y="0" fill="rgba(62, 209, 204, 0.9)"></rect><use xlink:href="#SvgjsG2914" transform="translate(0, 0)" fill="rgba(48, 188, 183, 0.9)"></use><use xlink:href="#SvgjsG2914" transform="translate(0, 1080)" fill="rgba(48, 188, 183, 0.9)"></use><use xlink:href="#SvgjsG2914" transform="translate(1080, 0)" fill="rgba(48, 188, 183, 0.9)"></use><use xlink:href="#SvgjsG2914" transform="translate(1080, 1080)" fill="rgba(48, 188, 183, 0.9)"></use></g><defs><mask id="SvgjsMask2906"><rect width="1606" height="2000" fill="#ffffff"></rect></mask><g id="SvgjsG2910"><path d="M3.474 10.969C3.474 7.665 8.077 0.361 8.077 0.361s4.602 7.305 4.602 10.608c0 2.247-1.506 4.771-4.602 4.771-3.095 0-4.603-2.524-4.603-4.771z" fill-rule="evenodd"></path></g><g id="SvgjsG2913"><path d="M8.424 3.754V3.428h0.425V3.222c0-0.366 0.32-0.662 0.716-0.662 0.395 0 0.714 0.296 0.713 0.662v0.206h0.416V3.754h-2.272zM12.175 10.464c-0.839 0-1.519 0.68-1.519 1.519a1.519 1.519 0 0 0 1.518 1.519c0.838 0 1.517-0.68 1.517-1.519 0-0.839-0.68-1.519-1.518-1.519z m0 2.246a0.726 0.726 0 0 1 0-1.453 0.726 0.726 0 0 1 0.726 0.726 0.726 0.726 0 0 1-0.727 0.727zM3.478 10.449c-0.838 0-1.518 0.681-1.518 1.519a1.518 1.518 0 0 0 1.518 1.519c0.839 0 1.519-0.679 1.519-1.519 0-0.838-0.68-1.519-1.519-1.519z m0.003 2.247a0.726 0.726 0 0 1 0-1.452 0.726 0.726 0 0 1 0 1.452z"></path><path d="M14.724 7.663c0.454 0.088 0.725 0.284 0.93 1.404l0.324 2.021c0.117 0.658-0.255 0.898-0.718 0.898H14.147c0-1.09-0.883-1.976-1.972-1.976-1.09 0-1.973 0.886-1.973 1.976H5.446c0-1.09-0.883-1.976-1.972-1.976-1.09 0-1.973 0.886-1.974 1.976H0.578C0.253 11.986 0 11.74 0 11.422V4.778c0-0.362 0.286-0.653 0.636-0.653h11.94c0.454 0 0.786 0.225 0.95 0.62l1.198 2.918zM10.744 4.802v2.76H13.936l-1.12-2.76H10.744zM7.889 7.208V5.515H6.196V7.208H4.502v1.694h1.694v1.694h1.693V8.902h1.694V7.208H7.889z"></path></g><g id="SvgjsG2908"><path d="M13.82 13.722c0.417-0.509 0.563-1.217 0.321-1.881l-0.22-0.607h1.332V0H0.8v11.234h7.773l0.847 2.326a1.922 1.922 0 0 0 1.455 1.234l0.399 1.206 3.335 0-0.789-2.278z m-1.212-6.07c-0.712 0.259-1.08 1.048-0.821 1.762l0.514 1.402H1.218V0.419h13.618v10.396h-1.07l-1.158-3.163z"></path><path d="M8.649 6.424v0.802H10.992c0.098 0 0.241 0.087 0.241 0.241 0 1.365-0.172 2.01-0.891 2.01-0.748 0-0.901-1.619-1.693-1.724v1.547h-1.253V7.75c-0.832 0.062-0.966 1.726-1.742 1.727-0.719 0-0.852-0.645-0.852-2.01 0-0.153 0.143-0.241 0.241-0.241h2.353v-0.802H4.96c-0.14 0-0.254-0.113-0.255-0.253s0.114-0.253 0.255-0.253h2.436V5.115h-2.742a0.254 0.254 0 0 1 0-0.507h2.742v-0.802h-2.574c-0.139 0-0.253-0.114-0.253-0.254 0-0.14 0.114-0.254 0.253-0.254h2.574V2.496h-2.016a0.254 0.254 0 0 1 0-0.508h2.016v-0.443h1.253v0.443h2.016c0.14 0 0.254 0.115 0.254 0.255S10.805 2.496 10.665 2.496h-2.016v0.802H11.23a0.254 0.254 0 0 1 0 0.508H8.649v0.802h2.75a0.254 0.254 0 0 1 0 0.507h-2.75v0.802h2.437a0.253 0.253 0 0 1 0 0.507h-2.437z"></path></g><g id="SvgjsG2912"><path d="M13.143 15.716v-2.374L2.833 9.897v2.376l10.31 3.443z m-7.932-5.816c-0.355-0.4-2.712-3.125-0.334-5.482C6.86 2.452 7.149 0.801 6.481 0c0 0 5.045 2.073 2.078 6.882-0.508 0.817-1.777 1.781-1.114 3.769l-2.234-0.75z m3.098 0.653c-0.109-0.403-0.592-1.282 0.884-3.03 0.789-0.931 1.085-2.312 1.157-2.832 0 0 2.613 1.498 0.013 5.165l-2.054 0.697z m0.555 0.562l4.279-1.429v2.374l-0.725 0.239-3.553-1.184zM7.113 14.499L2.833 15.925v-2.374l0.728-0.238 3.552 1.186z" fill-rule="evenodd"></path></g><g id="SvgjsG2909"><path d="M8.853 1.235v0.441H6.95V0.983h-0.551c0-0.432-0.466-0.982-1.133-0.983-0.642 0.001-1.227 0.505-1.227 1.266 0 0.361 0.208 0.684 0.393 0.795C3.704 2.329 2.73 3.248 2.536 3.807c-0.265 0.536 0.468 0.983 0.842 0.448 0.381-0.533 0.804-1.189 2.061-1.502v0.55c-0.517 0.101-1.944 0.942-1.943 2.573v9.495C3.495 15.607 3.605 16 4.078 16h4.178c0.474 0 0.583-0.393 0.581-0.629V5.876c0.002-1.631-1.375-2.472-1.895-2.572v-0.661h1.911v0.409L13.526 3.76V0.55L8.853 1.235z m-3.602 0.503c-0.297 0.001-0.54-0.242-0.543-0.542a0.55 0.55 0 0 1 0.543-0.543c0.301 0.003 0.544 0.246 0.542 0.543a0.54 0.54 0 0 1-0.542 0.542z"></path></g><g id="SvgjsG2911"><path d="M14.344 10.747c0 2.735-2.217 4.952-4.952 4.952-2.735 0-4.952-2.217-4.953-4.952 0-1.3 0.294-3.189 2.021-4.918 3.16-3.16 3.308-4.973 3.308-4.973 3.797 3.797 4.576 7.155 4.576 9.889z"></path><path d="M3.978 3.8s0.461 3.022 3.141 4.749c1.488 0.959 4.571 3.643 4.57 4.584 0 1.981-4.712 2.565-6.693 2.566s-3.588-1.606-3.588-3.588c0-1.982-0.18-5.56 2.571-8.311z"></path><path d="M8.123 6.557s0.08 0.983 1.792 2.695c0.936 0.935 1.095 1.959 1.095 2.663 0 1.482-1.201 2.683-2.684 2.683s-2.683-1.201-2.683-2.684c0-1.481 0.422-3.301 2.48-5.358z"></path></g><g id="SvgjsG2907"><path d="M0.67 1.404v3.335h-0.499A0.171 0.171 0 0 1 0 4.567V0.264C0 0.119 0.109 0 0.258 0h2.204C2.611 0 2.72 0.118 2.72 0.264v0.252h3.409c0.095 0 0.171 0.076 0.171 0.171v0.968h-2.91V1.402c0-0.145-0.108-0.264-0.258-0.264H0.928c-0.149 0-0.258 0.12-0.258 0.266z"></path><path d="M7.641 6.758c0 0.094-0.076 0.17-0.172 0.17H1.512c-0.095 0-0.171-0.076-0.172-0.17V2.454c0-0.146 0.109-0.264 0.258-0.264h2.205c0.149 0 0.258 0.118 0.258 0.264v0.253h3.408c0.095 0 0.171 0.076 0.172 0.17v3.881zM4.998 4.308v-1.015h-1.015v1.015h-1.016v1.016h1.016v1.015h1.015v-1.015h1.015v-1.016h-1.014z m3.86-1.638v12.994H16V2.67H8.858zM15.552 13.826H9.305V8.918H15.552v4.908z m0-5.789H9.305V3.13H15.552v4.907z"></path><path d="M15.099 3.548H9.753v4.073h5.346V3.548zM13.296 4.914H11.536c-0.137 0-0.248-0.11-0.248-0.249 0-0.137 0.111-0.248 0.248-0.248h1.76a0.248 0.248 0 0 1 0 0.496z m1.806 4.421h-5.346v4.072h5.346v-4.072z m-1.806 1.367H11.536a0.248 0.248 0 0 1 0-0.497h1.76a0.248 0.248 0 0 1 0 0.497z"></path></g><g id="SvgjsG2914"><use xlink:href="#SvgjsG2907" transform="translate(0, 0) scale(2.4)" fill="rgba(48, 188, 183, 0.9)"></use><use xlink:href="#SvgjsG2908" transform="translate(0, 108) scale(2.4)" fill="rgba(48, 188, 183, 0.9)"></use><use xlink:href="#SvgjsG2909" transform="translate(0, 216) scale(2.4)" fill="rgba(48, 188, 183, 0.9)"></use><use xlink:href="#SvgjsG2910" transform="translate(0, 324) scale(2.4)" fill="rgba(48, 188, 183, 0.9)"></use><use xlink:href="#SvgjsG2911" transform="translate(0, 432) scale(2.4)" fill="rgba(48, 188, 183, 0.9)"></use><use xlink:href="#SvgjsG2912" transform="translate(0, 540) scale(2.4)" fill="rgba(48, 188, 183, 0.9)"></use><use xlink:href="#SvgjsG2908" transform="translate(0, 648) scale(2.4)" fill="rgba(48, 188, 183, 0.9)"></use><use xlink:href="#SvgjsG2910" transform="translate(0, 756) scale(2.4)" fill="rgba(48, 188, 183, 0.9)"></use><use xlink:href="#SvgjsG2912" transform="translate(0, 864) scale(2.4)" fill="rgba(48, 188, 183, 0.9)"></use><use xlink:href="#SvgjsG2909" transform="translate(0, 972) scale(2.4)" fill="rgba(48, 188, 183, 0.9)"></use><use xlink:href="#SvgjsG2911" transform="translate(108, 0) scale(2.4)" fill="rgba(48, 188, 183, 0.9)"></use><use xlink:href="#SvgjsG2911" transform="translate(108, 108) scale(2.4)" fill="rgba(48, 188, 183, 0.9)"></use><use xlink:href="#SvgjsG2911" transform="translate(108, 216) scale(2.4)" fill="rgba(48, 188, 183, 0.9)"></use><use xlink:href="#SvgjsG2908" transform="translate(108, 324) scale(2.4)" fill="rgba(48, 188, 183, 0.9)"></use><use xlink:href="#SvgjsG2907" transform="translate(108, 432) scale(2.4)" fill="rgba(48, 188, 183, 0.9)"></use><use xlink:href="#SvgjsG2911" transform="translate(108, 540) scale(2.4)" fill="rgba(48, 188, 183, 0.9)"></use><use xlink:href="#SvgjsG2909" transform="translate(108, 648) scale(2.4)" fill="rgba(48, 188, 183, 0.9)"></use><use xlink:href="#SvgjsG2907" transform="translate(108, 756) scale(2.4)" fill="rgba(48, 188, 183, 0.9)"></use><use xlink:href="#SvgjsG2911" transform="translate(108, 864) scale(2.4)" fill="rgba(48, 188, 183, 0.9)"></use><use xlink:href="#SvgjsG2913" transform="translate(108, 972) scale(2.4)" fill="rgba(48, 188, 183, 0.9)"></use><use xlink:href="#SvgjsG2909" transform="translate(216, 0) scale(2.4)" fill="rgba(48, 188, 183, 0.9)"></use><use xlink:href="#SvgjsG2909" transform="translate(216, 108) scale(2.4)" fill="rgba(48, 188, 183, 0.9)"></use><use xlink:href="#SvgjsG2909" transform="translate(216, 216) scale(2.4)" fill="rgba(48, 188, 183, 0.9)"></use><use xlink:href="#SvgjsG2912" transform="translate(216, 324) scale(2.4)" fill="rgba(48, 188, 183, 0.9)"></use><use xlink:href="#SvgjsG2907" transform="translate(216, 432) scale(2.4)" fill="rgba(48, 188, 183, 0.9)"></use><use xlink:href="#SvgjsG2912" transform="translate(216, 540) scale(2.4)" fill="rgba(48, 188, 183, 0.9)"></use><use xlink:href="#SvgjsG2910" transform="translate(216, 648) scale(2.4)" fill="rgba(48, 188, 183, 0.9)"></use><use xlink:href="#SvgjsG2913" transform="translate(216, 756) scale(2.4)" fill="rgba(48, 188, 183, 0.9)"></use><use xlink:href="#SvgjsG2907" transform="translate(216, 864) scale(2.4)" fill="rgba(48, 188, 183, 0.9)"></use><use xlink:href="#SvgjsG2912" transform="translate(216, 972) scale(2.4)" fill="rgba(48, 188, 183, 0.9)"></use><use xlink:href="#SvgjsG2912" transform="translate(324, 0) scale(2.4)" fill="rgba(48, 188, 183, 0.9)"></use><use xlink:href="#SvgjsG2910" transform="translate(324, 108) scale(2.4)" fill="rgba(48, 188, 183, 0.9)"></use><use xlink:href="#SvgjsG2909" transform="translate(324, 216) scale(2.4)" fill="rgba(48, 188, 183, 0.9)"></use><use xlink:href="#SvgjsG2913" transform="translate(324, 324) scale(2.4)" fill="rgba(48, 188, 183, 0.9)"></use><use xlink:href="#SvgjsG2907" transform="translate(324, 432) scale(2.4)" fill="rgba(48, 188, 183, 0.9)"></use><use xlink:href="#SvgjsG2907" transform="translate(324, 540) scale(2.4)" fill="rgba(48, 188, 183, 0.9)"></use><use xlink:href="#SvgjsG2912" transform="translate(324, 648) scale(2.4)" fill="rgba(48, 188, 183, 0.9)"></use><use xlink:href="#SvgjsG2911" transform="translate(324, 756) scale(2.4)" fill="rgba(48, 188, 183, 0.9)"></use><use xlink:href="#SvgjsG2908" transform="translate(324, 864) scale(2.4)" fill="rgba(48, 188, 183, 0.9)"></use><use xlink:href="#SvgjsG2910" transform="translate(324, 972) scale(2.4)" fill="rgba(48, 188, 183, 0.9)"></use><use xlink:href="#SvgjsG2910" transform="translate(432, 0) scale(2.4)" fill="rgba(48, 188, 183, 0.9)"></use><use xlink:href="#SvgjsG2912" transform="translate(432, 108) scale(2.4)" fill="rgba(48, 188, 183, 0.9)"></use><use xlink:href="#SvgjsG2911" transform="translate(432, 216) scale(2.4)" fill="rgba(48, 188, 183, 0.9)"></use><use xlink:href="#SvgjsG2907" transform="translate(432, 324) scale(2.4)" fill="rgba(48, 188, 183, 0.9)"></use><use xlink:href="#SvgjsG2911" transform="translate(432, 432) scale(2.4)" fill="rgba(48, 188, 183, 0.9)"></use><use xlink:href="#SvgjsG2911" transform="translate(432, 540) scale(2.4)" fill="rgba(48, 188, 183, 0.9)"></use><use xlink:href="#SvgjsG2908" transform="translate(432, 648) scale(2.4)" fill="rgba(48, 188, 183, 0.9)"></use><use xlink:href="#SvgjsG2907" transform="translate(432, 756) scale(2.4)" fill="rgba(48, 188, 183, 0.9)"></use><use xlink:href="#SvgjsG2912" transform="translate(432, 864) scale(2.4)" fill="rgba(48, 188, 183, 0.9)"></use><use xlink:href="#SvgjsG2912" transform="translate(432, 972) scale(2.4)" fill="rgba(48, 188, 183, 0.9)"></use><use xlink:href="#SvgjsG2909" transform="translate(540, 0) scale(2.4)" fill="rgba(48, 188, 183, 0.9)"></use><use xlink:href="#SvgjsG2909" transform="translate(540, 108) scale(2.4)" fill="rgba(48, 188, 183, 0.9)"></use><use xlink:href="#SvgjsG2907" transform="translate(540, 216) scale(2.4)" fill="rgba(48, 188, 183, 0.9)"></use><use xlink:href="#SvgjsG2910" transform="translate(540, 324) scale(2.4)" fill="rgba(48, 188, 183, 0.9)"></use><use xlink:href="#SvgjsG2908" transform="translate(540, 432) scale(2.4)" fill="rgba(48, 188, 183, 0.9)"></use><use xlink:href="#SvgjsG2909" transform="translate(540, 540) scale(2.4)" fill="rgba(48, 188, 183, 0.9)"></use><use xlink:href="#SvgjsG2910" transform="translate(540, 648) scale(2.4)" fill="rgba(48, 188, 183, 0.9)"></use><use xlink:href="#SvgjsG2907" transform="translate(540, 756) scale(2.4)" fill="rgba(48, 188, 183, 0.9)"></use><use xlink:href="#SvgjsG2907" transform="translate(540, 864) scale(2.4)" fill="rgba(48, 188, 183, 0.9)"></use><use xlink:href="#SvgjsG2911" transform="translate(540, 972) scale(2.4)" fill="rgba(48, 188, 183, 0.9)"></use><use xlink:href="#SvgjsG2912" transform="translate(648, 0) scale(2.4)" fill="rgba(48, 188, 183, 0.9)"></use><use xlink:href="#SvgjsG2909" transform="translate(648, 108) scale(2.4)" fill="rgba(48, 188, 183, 0.9)"></use><use xlink:href="#SvgjsG2912" transform="translate(648, 216) scale(2.4)" fill="rgba(48, 188, 183, 0.9)"></use><use xlink:href="#SvgjsG2907" transform="translate(648, 324) scale(2.4)" fill="rgba(48, 188, 183, 0.9)"></use><use xlink:href="#SvgjsG2910" transform="translate(648, 432) scale(2.4)" fill="rgba(48, 188, 183, 0.9)"></use><use xlink:href="#SvgjsG2910" transform="translate(648, 540) scale(2.4)" fill="rgba(48, 188, 183, 0.9)"></use><use xlink:href="#SvgjsG2909" transform="translate(648, 648) scale(2.4)" fill="rgba(48, 188, 183, 0.9)"></use><use xlink:href="#SvgjsG2912" transform="translate(648, 756) scale(2.4)" fill="rgba(48, 188, 183, 0.9)"></use><use xlink:href="#SvgjsG2913" transform="translate(648, 864) scale(2.4)" fill="rgba(48, 188, 183, 0.9)"></use><use xlink:href="#SvgjsG2908" transform="translate(648, 972) scale(2.4)" fill="rgba(48, 188, 183, 0.9)"></use><use xlink:href="#SvgjsG2912" transform="translate(756, 0) scale(2.4)" fill="rgba(48, 188, 183, 0.9)"></use><use xlink:href="#SvgjsG2912" transform="translate(756, 108) scale(2.4)" fill="rgba(48, 188, 183, 0.9)"></use><use xlink:href="#SvgjsG2908" transform="translate(756, 216) scale(2.4)" fill="rgba(48, 188, 183, 0.9)"></use><use xlink:href="#SvgjsG2912" transform="translate(756, 324) scale(2.4)" fill="rgba(48, 188, 183, 0.9)"></use><use xlink:href="#SvgjsG2910" transform="translate(756, 432) scale(2.4)" fill="rgba(48, 188, 183, 0.9)"></use><use xlink:href="#SvgjsG2912" transform="translate(756, 540) scale(2.4)" fill="rgba(48, 188, 183, 0.9)"></use><use xlink:href="#SvgjsG2910" transform="translate(756, 648) scale(2.4)" fill="rgba(48, 188, 183, 0.9)"></use><use xlink:href="#SvgjsG2910" transform="translate(756, 756) scale(2.4)" fill="rgba(48, 188, 183, 0.9)"></use><use xlink:href="#SvgjsG2907" transform="translate(756, 864) scale(2.4)" fill="rgba(48, 188, 183, 0.9)"></use><use xlink:href="#SvgjsG2909" transform="translate(756, 972) scale(2.4)" fill="rgba(48, 188, 183, 0.9)"></use><use xlink:href="#SvgjsG2913" transform="translate(864, 0) scale(2.4)" fill="rgba(48, 188, 183, 0.9)"></use><use xlink:href="#SvgjsG2908" transform="translate(864, 108) scale(2.4)" fill="rgba(48, 188, 183, 0.9)"></use><use xlink:href="#SvgjsG2908" transform="translate(864, 216) scale(2.4)" fill="rgba(48, 188, 183, 0.9)"></use><use xlink:href="#SvgjsG2907" transform="translate(864, 324) scale(2.4)" fill="rgba(48, 188, 183, 0.9)"></use><use xlink:href="#SvgjsG2910" transform="translate(864, 432) scale(2.4)" fill="rgba(48, 188, 183, 0.9)"></use><use xlink:href="#SvgjsG2908" transform="translate(864, 540) scale(2.4)" fill="rgba(48, 188, 183, 0.9)"></use><use xlink:href="#SvgjsG2907" transform="translate(864, 648) scale(2.4)" fill="rgba(48, 188, 183, 0.9)"></use><use xlink:href="#SvgjsG2911" transform="translate(864, 756) scale(2.4)" fill="rgba(48, 188, 183, 0.9)"></use><use xlink:href="#SvgjsG2910" transform="translate(864, 864) scale(2.4)" fill="rgba(48, 188, 183, 0.9)"></use><use xlink:href="#SvgjsG2907" transform="translate(864, 972) scale(2.4)" fill="rgba(48, 188, 183, 0.9)"></use><use xlink:href="#SvgjsG2908" transform="translate(972, 0) scale(2.4)" fill="rgba(48, 188, 183, 0.9)"></use><use xlink:href="#SvgjsG2908" transform="translate(972, 108) scale(2.4)" fill="rgba(48, 188, 183, 0.9)"></use><use xlink:href="#SvgjsG2909" transform="translate(972, 216) scale(2.4)" fill="rgba(48, 188, 183, 0.9)"></use><use xlink:href="#SvgjsG2910" transform="translate(972, 324) scale(2.4)" fill="rgba(48, 188, 183, 0.9)"></use><use xlink:href="#SvgjsG2907" transform="translate(972, 432) scale(2.4)" fill="rgba(48, 188, 183, 0.9)"></use><use xlink:href="#SvgjsG2912" transform="translate(972, 540) scale(2.4)" fill="rgba(48, 188, 183, 0.9)"></use><use xlink:href="#SvgjsG2911" transform="translate(972, 648) scale(2.4)" fill="rgba(48, 188, 183, 0.9)"></use><use xlink:href="#SvgjsG2913" transform="translate(972, 756) scale(2.4)" fill="rgba(48, 188, 183, 0.9)"></use><use xlink:href="#SvgjsG2911" transform="translate(972, 864) scale(2.4)" fill="rgba(48, 188, 183, 0.9)"></use><use xlink:href="#SvgjsG2908" transform="translate(972, 972) scale(2.4)" fill="rgba(48, 188, 183, 0.9)"></use></g></defs></svg>